# xmcd
#
# Track frame offsets: 
#        150
#        19567
#        42850
#        62667
#        82363
#        98422
#        120819
#        135898
#        156747
#        181566
#
# Disc length: 2698 seconds
#
# Revision: 1
# Processed by: cddbd v1.5.2PL0 Copyright (c) Steve Scherf et al.
# Submitted via: ExactAudioCopy v0.99pb4
#
DISCID=6e0a880a
DTITLE=Various Artist - No. 1 Smooth Jazz Radio Hits 
DYEAR=2004
DGENRE=Jazz
TTITLE0=Jeff Kashiwa - Hyde Park
TTITLE1=Kim Waters - Waterfall
TTITLE2=Urban Knights - Hi-Heel Sneakers
TTITLE3=Special EFX - Cruise Control
TTITLE4=Walter Beasley - Comin' At Cha
TTITLE5=Nestor Torres - Watermelon Man
TTITLE6=Alfonzo Blackwell - Funky Shuffle
TTITLE7=Chieli Minucci - My Girl Sunday
TTITLE8=Chuck Loeb - Sarao
TTITLE9=Fattburger - Evil Ways
EXTD=YEAR: 2004
EXTT0=
EXTT1=
EXTT2=
EXTT3=
EXTT4=
EXTT5=
EXTT6=
EXTT7=
EXTT8=
EXTT9=
PLAYORDER=
